<?xml version="1.0" encoding="UTF-8" standalone="no"?>
<!-- Created with Inkscape (http://www.inkscape.org/) -->

<svg
   width="53.690449mm"
   height="202.63202mm"
   viewBox="0 0 53.690451 202.63201"
   version="1.1"
   id="svg1"
   xmlns="http://www.w3.org/2000/svg"
   xmlns:svg="http://www.w3.org/2000/svg">
  <defs
     id="defs1" />
  <g
     id="layer1"
     transform="translate(-108.84292,-26.656729)">
    <g
       id="g7152"
       transform="matrix(0.26458333,0,0,0.26458333,101.35881,5.7793253)">
      <path
         id="path6849"
         d="m 665.684,25701.7 h 881.488 v 553.758 H 665.684 Z"
         style="fill:#2d1d19;fill-opacity:1;fill-rule:nonzero;stroke:none"
         transform="matrix(0.13333333,0,0,-0.13333333,0,3643.0533)" />
      <path
         id="path6850"
         d="M 1470.89,20987.2 H 212.148 v 4408.2 h 147.899 v 314.3 177.1 h -2.422 l 93.859,460 v 10 h 11.407 v 16.9 h 236.902 v -118.2 h -34.109 v -546.1 H 465.902 V 21121.6 H 1470.89 v -134.4"
         style="fill:#e1e8f2;fill-opacity:1;fill-rule:nonzero;stroke:none"
         transform="matrix(0.13333333,0,0,-0.13333333,0,3643.0533)" />
      <path
         id="path6851"
         d="m 665.684,25709.4 h 34.1094 v 546.098 H 665.684 Z"
         style="fill:#281b17;fill-opacity:1;fill-rule:nonzero;stroke:none"
         transform="matrix(0.13333333,0,0,-0.13333333,0,3643.0533)" />
      <path
         id="path6852"
         d="m 699.793,25688 h 816.398 v 720.832 H 699.793 Z"
         style="fill:#d3d4d3;fill-opacity:1;fill-rule:nonzero;stroke:none"
         transform="matrix(0.13333333,0,0,-0.13333333,0,3643.0533)" />
      <path
         id="path6853"
         d="m 1516.19,26288.7 h 3.9102 v 120.141 h -3.9102 z"
         style="fill:#ebebeb;fill-opacity:1;fill-rule:nonzero;stroke:none"
         transform="matrix(0.13333333,0,0,-0.13333333,0,3643.0533)" />
      <path
         id="path6854"
         d="m 699.793,26288.7 h 816.398 v 120.141 H 699.793 Z"
         style="fill:#bdc0bf;fill-opacity:1;fill-rule:nonzero;stroke:none"
         transform="matrix(0.13333333,0,0,-0.13333333,0,3643.0533)" />
      <path
         id="path6855"
         d="m 1516.19,25709.4 h 3.9102 v 98.707 h -3.9102 z"
         style="fill:#291b18;fill-opacity:1;fill-rule:nonzero;stroke:none"
         transform="matrix(0.13333333,0,0,-0.13333333,0,3643.0533)" />
      <path
         id="path6856"
         d="m 699.793,25709.4 h 816.398 v 98.707 H 699.793 Z"
         style="fill:#bdc0bf;fill-opacity:1;fill-rule:nonzero;stroke:none"
         transform="matrix(0.13333333,0,0,-0.13333333,0,3643.0533)" />
      <path
         id="path6857"
         d="m 833.313,25808.1 -133.516,-120.3 v 721.1 l 68.473,-123.6 65.043,-477.2"
         style="fill:#e8e7e6;fill-opacity:1;fill-rule:nonzero;stroke:none"
         transform="matrix(0.13333333,0,0,-0.13333333,0,3643.0533)" />
      <path
         id="path6858"
         d="m 1518.83,25688 -134.45,119.6 65.98,482 68.47,119.3 V 25688"
         style="fill:#e8e7e6;fill-opacity:1;fill-rule:nonzero;stroke:none"
         transform="matrix(0.13333333,0,0,-0.13333333,0,3643.0533)" />
      <path
         id="path6859"
         d="m 1244.49,25815.7 h 4.9336 v 44.199 h -4.9336 z"
         style="fill:#bdc0bf;fill-opacity:1;fill-rule:nonzero;stroke:none"
         transform="matrix(0.13333333,0,0,-0.13333333,0,3643.0533)" />
      <path
         id="path6860"
         d="m 1264.34,25815.7 h 4.8516 v 44.199 h -4.8516 z"
         style="fill:#bdc0bf;fill-opacity:1;fill-rule:nonzero;stroke:none"
         transform="matrix(0.13333333,0,0,-0.13333333,0,3643.0533)" />
      <path
         id="path6861"
         d="m 1284.06,25815.7 h 4.9727 v 44.199 h -4.9727 z"
         style="fill:#bdc0bf;fill-opacity:1;fill-rule:nonzero;stroke:none"
         transform="matrix(0.13333333,0,0,-0.13333333,0,3643.0533)" />
      <path
         id="path6862"
         d="m 1303.93,25815.7 h 4.8984 v 44.199 h -4.8984 z"
         style="fill:#bdc0bf;fill-opacity:1;fill-rule:nonzero;stroke:none"
         transform="matrix(0.13333333,0,0,-0.13333333,0,3643.0533)" />
      <path
         id="path6863"
         d="m 1323.66,25815.7 h 4.8984 v 44.199 h -4.8984 z"
         style="fill:#bdc0bf;fill-opacity:1;fill-rule:nonzero;stroke:none"
         transform="matrix(0.13333333,0,0,-0.13333333,0,3643.0533)" />
      <path
         id="path6864"
         d="m 1343.5,25815.7 h 4.8711 v 44.199 H 1343.5 Z"
         style="fill:#bdc0bf;fill-opacity:1;fill-rule:nonzero;stroke:none"
         transform="matrix(0.13333333,0,0,-0.13333333,0,3643.0533)" />
      <path
         id="path6865"
         d="m 1363.29,25815.7 h 4.8398 v 44.199 h -4.8398 z"
         style="fill:#bdc0bf;fill-opacity:1;fill-rule:nonzero;stroke:none"
         transform="matrix(0.13333333,0,0,-0.13333333,0,3643.0533)" />
      <path
         id="path6866"
         d="m 875.258,26238 c -6.274,0 -11.242,4.3 -11.242,9.6 0,5.3 4.968,9.6 11.242,9.6 6.211,0 11.316,-4.3 11.316,-9.6 0,-5.3 -5.105,-9.6 -11.316,-9.6"
         style="fill:#b5bdc6;fill-opacity:1;fill-rule:nonzero;stroke:none"
         transform="matrix(0.13333333,0,0,-0.13333333,0,3643.0533)" />
      <path
         id="path6867"
         d="m 924.402,26185.8 c -13.461,0 -24.515,9.2 -24.515,20.8 0,11.5 11.054,20.8 24.515,20.8 13.598,0 24.543,-9.3 24.543,-20.8 0,-11.6 -10.945,-20.8 -24.543,-20.8"
         style="fill:#b5bdc6;fill-opacity:1;fill-rule:nonzero;stroke:none"
         transform="matrix(0.13333333,0,0,-0.13333333,0,3643.0533)" />
      <path
         id="path6868"
         d="m 960.496,26206.5 c 0,-11.6 -10.992,-21 -24.519,-21 -13.516,0 -24.539,9.4 -24.539,21 0,11.4 11.023,20.7 24.539,20.7 13.527,0 24.519,-9.3 24.519,-20.7"
         style="fill:#e8e7e6;fill-opacity:1;fill-rule:nonzero;stroke:none"
         transform="matrix(0.13333333,0,0,-0.13333333,0,3643.0533)" />
      <path
         id="path6869"
         d="m 892.832,26247.7 c 0,-5.3 -5.117,-9.5 -11.367,-9.5 -6.211,0 -11.231,4.2 -11.231,9.5 0,5.3 5.02,9.5 11.231,9.5 6.25,0 11.367,-4.2 11.367,-9.5"
         style="fill:#e8e7e6;fill-opacity:1;fill-rule:nonzero;stroke:none"
         transform="matrix(0.13333333,0,0,-0.13333333,0,3643.0533)" />
      <path
         id="path6870"
         d="M 1517.53,26406.8 H 697.227 l 98.878,311.8 604.575,1.2 116.85,-313"
         style="fill:#d3d4d3;fill-opacity:1;fill-rule:nonzero;stroke:none"
         transform="matrix(0.13333333,0,0,-0.13333333,0,3643.0533)" />
      <path
         id="path6871"
         d="M 1400.68,26408 H 794.375 v 311.8 H 1400.68 V 26408"
         style="fill:#e8e7e6;fill-opacity:1;fill-rule:nonzero;stroke:none"
         transform="matrix(0.13333333,0,0,-0.13333333,0,3643.0533)" />
      <path
         id="path6872"
         d="m 827.82,26421.5 h -9.468 v 35.3 h 9.468 v -35.3"
         style="fill:#9a9ba0;fill-opacity:1;fill-rule:nonzero;stroke:none"
         transform="matrix(0.13333333,0,0,-0.13333333,0,3643.0533)" />
      <path
         id="path6873"
         d="m 844.309,26421.5 h -9.524 v 35.3 h 9.524 v -35.3"
         style="fill:#9a9ba0;fill-opacity:1;fill-rule:nonzero;stroke:none"
         transform="matrix(0.13333333,0,0,-0.13333333,0,3643.0533)" />
      <path
         id="path6874"
         d="m 860.652,26421.5 h -9.414 v 35.3 h 9.414 v -35.3"
         style="fill:#9a9ba0;fill-opacity:1;fill-rule:nonzero;stroke:none"
         transform="matrix(0.13333333,0,0,-0.13333333,0,3643.0533)" />
      <path
         id="path6875"
         d="m 877.742,26421.5 h -9.472 v 35.3 h 9.472 v -35.3"
         style="fill:#9a9ba0;fill-opacity:1;fill-rule:nonzero;stroke:none"
         transform="matrix(0.13333333,0,0,-0.13333333,0,3643.0533)" />
      <path
         id="path6876"
         d="m 895.461,26421.5 h -9.516 v 35.3 h 9.516 v -35.3"
         style="fill:#9a9ba0;fill-opacity:1;fill-rule:nonzero;stroke:none"
         transform="matrix(0.13333333,0,0,-0.13333333,0,3643.0533)" />
      <path
         id="path6877"
         d="m 738.77,26405.1 42.968,-99.8 650.602,-5.4 53,106.4 -746.57,-1.2"
         style="fill:#67b1b8;fill-opacity:1;fill-rule:nonzero;stroke:none"
         transform="matrix(0.13333333,0,0,-0.13333333,0,3643.0533)" />
      <path
         id="path6878"
         d="m 706.797,26385.5 50.781,-113.2 29.246,-233.4 -76.211,1.4 -3.816,345.2"
         style="fill:#67b1b8;fill-opacity:1;fill-rule:nonzero;stroke:none"
         transform="matrix(0.13333333,0,0,-0.13333333,0,3643.0533)" />
      <path
         id="path6879"
         d="m 1508.08,26382.3 -50.75,-113.1 -29.28,-233.4 76.15,1.3 3.88,345.2"
         style="fill:#67b1b8;fill-opacity:1;fill-rule:nonzero;stroke:none"
         transform="matrix(0.13333333,0,0,-0.13333333,0,3643.0533)" />
      <path
         id="path6880"
         d="m 732.605,25780.8 c 0,-23.2 -17.578,-41.9 -39.16,-41.9 -21.675,0 -39.226,18.7 -39.226,41.9 0,22.9 17.551,41.7 39.226,41.7 21.582,0 39.16,-18.8 39.16,-41.7"
         style="fill:#d3d4d3;fill-opacity:1;fill-rule:nonzero;stroke:none"
         transform="matrix(0.13333333,0,0,-0.13333333,0,3643.0533)" />
      <path
         id="path6881"
         d="m 722.02,25780.8 c 0,-16.9 -12.86,-30.6 -28.575,-30.6 -15.855,0 -28.648,13.7 -28.648,30.6 0,16.8 12.793,30.5 28.648,30.5 15.715,0 28.575,-13.7 28.575,-30.5"
         style="fill:#211c1d;fill-opacity:1;fill-rule:nonzero;stroke:none"
         transform="matrix(0.13333333,0,0,-0.13333333,0,3643.0533)" />
      <path
         id="path6882"
         d="m 1563.75,25783.9 c 0,-23 -17.58,-41.8 -39.2,-41.8 -21.66,0 -39.15,18.8 -39.15,41.8 0,23.1 17.49,41.8 39.15,41.8 21.62,0 39.2,-18.7 39.2,-41.8"
         style="fill:#d3d4d3;fill-opacity:1;fill-rule:nonzero;stroke:none"
         transform="matrix(0.13333333,0,0,-0.13333333,0,3643.0533)" />
      <path
         id="path6883"
         d="m 1553.2,25783.8 c 0,-16.7 -12.8,-30.4 -28.65,-30.4 -15.77,0 -28.56,13.7 -28.56,30.4 0,17 12.79,30.7 28.56,30.7 15.85,0 28.65,-13.7 28.65,-30.7"
         style="fill:#211c1d;fill-opacity:1;fill-rule:nonzero;stroke:none"
         transform="matrix(0.13333333,0,0,-0.13333333,0,3643.0533)" />
      <path
         id="path6884"
         d="M 1384.7,26719.8 H 806.191 v 11.3 H 1384.7 v -11.3"
         style="fill:#d3d4d3;fill-opacity:1;fill-rule:nonzero;stroke:none"
         transform="matrix(0.13333333,0,0,-0.13333333,0,3643.0533)" />
      <path
         id="path6885"
         d="m 465.902,21121.6 h 1268.18 v 4587.83 H 465.902 Z"
         style="fill:#67b1b8;fill-opacity:1;fill-rule:nonzero;stroke:none"
         transform="matrix(0.13333333,0,0,-0.13333333,0,3643.0533)" />
      <path
         id="path6886"
         d="m 533.234,21243.1 h 1108.82 v 4368.14 H 533.234 Z"
         style="fill:#8cd1be;fill-opacity:1;fill-rule:nonzero;stroke:none"
         transform="matrix(0.13333333,0,0,-0.13333333,0,3643.0533)" />
      <path
         id="path6887"
         d="m 1675.34,25468.4 -1049.891,-0.1 v 76 l 1049.891,0.1 v -76"
         style="fill:#b4e5d5;fill-opacity:1;fill-rule:nonzero;stroke:none"
         transform="matrix(0.13333333,0,0,-0.13333333,0,3643.0533)" />
      <path
         id="path6888"
         d="m 1675.9,25248.8 -1049.775,-0.1 v 76 H 1675.95 l -0.05,-75.9"
         style="fill:#b4e5d5;fill-opacity:1;fill-rule:nonzero;stroke:none"
         transform="matrix(0.13333333,0,0,-0.13333333,0,3643.0533)" />
      <path
         id="path6889"
         d="M 1676.59,25029.1 H 626.746 l -0.055,76 H 1676.59 v -76"
         style="fill:#b4e5d5;fill-opacity:1;fill-rule:nonzero;stroke:none"
         transform="matrix(0.13333333,0,0,-0.13333333,0,3643.0533)" />
      <path
         id="path6890"
         d="m 1677.16,24809.5 -1049.797,-0.1 v 76 l 1049.887,0.1 -0.09,-76"
         style="fill:#b4e5d5;fill-opacity:1;fill-rule:nonzero;stroke:none"
         transform="matrix(0.13333333,0,0,-0.13333333,0,3643.0533)" />
      <path
         id="path6891"
         d="M 1677.9,24589.8 H 627.922 l 0.101,76 H 1677.9 v -76"
         style="fill:#b4e5d5;fill-opacity:1;fill-rule:nonzero;stroke:none"
         transform="matrix(0.13333333,0,0,-0.13333333,0,3643.0533)" />
      <path
         id="path6892"
         d="M 1678.49,24370.2 H 628.605 v 75.9 l 1049.885,0.1 v -76"
         style="fill:#b4e5d5;fill-opacity:1;fill-rule:nonzero;stroke:none"
         transform="matrix(0.13333333,0,0,-0.13333333,0,3643.0533)" />
      <path
         id="path6893"
         d="m 629.258,24150.6 h 1049.87 v 75.91 H 629.258 Z"
         style="fill:#b4e5d5;fill-opacity:1;fill-rule:nonzero;stroke:none"
         transform="matrix(0.13333333,0,0,-0.13333333,0,3643.0533)" />
      <path
         id="path6894"
         d="M 1679.79,23930.9 H 629.867 v 76 H 1679.79 v -76"
         style="fill:#b4e5d5;fill-opacity:1;fill-rule:nonzero;stroke:none"
         transform="matrix(0.13333333,0,0,-0.13333333,0,3643.0533)" />
      <path
         id="path6895"
         d="M 1680.38,23711.3 H 630.535 v 76 H 1680.41 l -0.03,-76"
         style="fill:#b4e5d5;fill-opacity:1;fill-rule:nonzero;stroke:none"
         transform="matrix(0.13333333,0,0,-0.13333333,0,3643.0533)" />
      <path
         id="path6896"
         d="M 1681.03,23491.7 H 631.172 l -0.055,75.9 H 1681.03 v -75.9"
         style="fill:#b4e5d5;fill-opacity:1;fill-rule:nonzero;stroke:none"
         transform="matrix(0.13333333,0,0,-0.13333333,0,3643.0533)" />
      <path
         id="path6897"
         d="m 631.785,23272 h 1049.84 v 75.961 H 631.785 Z"
         style="fill:#b4e5d5;fill-opacity:1;fill-rule:nonzero;stroke:none"
         transform="matrix(0.13333333,0,0,-0.13333333,0,3643.0533)" />
      <path
         id="path6898"
         d="M 1682.28,23052.4 H 632.422 l 0.047,75.9 1049.811,0.1 v -76"
         style="fill:#b4e5d5;fill-opacity:1;fill-rule:nonzero;stroke:none"
         transform="matrix(0.13333333,0,0,-0.13333333,0,3643.0533)" />
      <path
         id="path6899"
         d="M 1682.96,22832.8 633,22832.7 v 76 h 1049.96 v -75.9"
         style="fill:#b4e5d5;fill-opacity:1;fill-rule:nonzero;stroke:none"
         transform="matrix(0.13333333,0,0,-0.13333333,0,3643.0533)" />
      <path
         id="path6900"
         d="m 633.66,22613.1 h 1049.89 v 75.988 H 633.66 Z"
         style="fill:#b4e5d5;fill-opacity:1;fill-rule:nonzero;stroke:none"
         transform="matrix(0.13333333,0,0,-0.13333333,0,3643.0533)" />
      <path
         id="path6901"
         d="m 1684.15,22393.5 -1049.873,-0.1 v 76.1 H 1684.15 v -76"
         style="fill:#b4e5d5;fill-opacity:1;fill-rule:nonzero;stroke:none"
         transform="matrix(0.13333333,0,0,-0.13333333,0,3643.0533)" />
      <path
         id="path6902"
         d="M 1684.75,22173.8 H 634.938 v 76 H 1684.79 l -0.04,-76"
         style="fill:#b4e5d5;fill-opacity:1;fill-rule:nonzero;stroke:none"
         transform="matrix(0.13333333,0,0,-0.13333333,0,3643.0533)" />
      <path
         id="path6903"
         d="M 1685.46,21954.2 H 635.52 l 0.125,75.9 1049.785,0.1 0.03,-76"
         style="fill:#b4e5d5;fill-opacity:1;fill-rule:nonzero;stroke:none"
         transform="matrix(0.13333333,0,0,-0.13333333,0,3643.0533)" />
      <path
         id="path6904"
         d="m 636.18,21734.6 h 1049.93 v 75.988 H 636.18 Z"
         style="fill:#b4e5d5;fill-opacity:1;fill-rule:nonzero;stroke:none"
         transform="matrix(0.13333333,0,0,-0.13333333,0,3643.0533)" />
      <path
         id="path6905"
         d="M 1686.64,21514.9 H 636.773 v 76 H 1686.64 v -76"
         style="fill:#b4e5d5;fill-opacity:1;fill-rule:nonzero;stroke:none"
         transform="matrix(0.13333333,0,0,-0.13333333,0,3643.0533)" />
      <path
         id="path6906"
         d="M 1687.33,21295.3 H 637.445 v 76 H 1687.34 l -0.01,-76"
         style="fill:#b4e5d5;fill-opacity:1;fill-rule:nonzero;stroke:none"
         transform="matrix(0.13333333,0,0,-0.13333333,0,3643.0533)" />
      <path
         id="path6907"
         d="m 1485.34,26406.3 -655.789,-76 197.759,74.9 z"
         style="fill:#b4e5d5;fill-opacity:1;fill-rule:nonzero;stroke:none"
         transform="matrix(0.13333333,0,0,-0.13333333,0,3643.0533)" />
      <path
         id="path6908"
         d="m 1024.8,25988 v 233.6 h 313.92 V 25988 H 1024.8"
         style="fill:#e8e7e6;fill-opacity:1;fill-rule:nonzero;stroke:none"
         transform="matrix(0.13333333,0,0,-0.13333333,0,3643.0533)" />
      <path
         id="path6909"
         d="m 844.617,25903.3 v 20.7 h 244.853 v -20.7 H 844.617"
         style="fill:#e8e7e6;fill-opacity:1;fill-rule:nonzero;stroke:none"
         transform="matrix(0.13333333,0,0,-0.13333333,0,3643.0533)" />
      <path
         id="path6910"
         d="m 844.617,25850.5 v 62.2 h 47.082 v -62.2 h -47.082"
         style="fill:#e8e7e6;fill-opacity:1;fill-rule:nonzero;stroke:none"
         transform="matrix(0.13333333,0,0,-0.13333333,0,3643.0533)" />
      <path
         id="path6911"
         d="m 465.902,21121.6 v 0 l 34.028,4557.5 33.304,-119.2 v -4197.8 l -67.332,-240.5"
         style="fill:#75c8c7;fill-opacity:1;fill-rule:nonzero;stroke:none"
         transform="matrix(0.13333333,0,0,-0.13333333,0,3643.0533)" />
      <path
         id="path6912"
         d="m 533.234,21362.1 v 4197.8 l 127.082,-454.8 h -33.625 l 0.055,-76 h 54.793 l 40.16,-143.7 h -94.336 v -76 h 115.563 l 40.137,-143.6 h -155.04 l -0.101,-76 h 176.363 l 40.153,-143.7 H 628.605 v -75.9 h 237.051 l 40.157,-143.7 H 629.258 v -75.9 h 297.765 l 40.145,-143.7 H 629.867 v -76 h 358.528 l 40.135,-143.6 H 630.535 v -76 h 419.225 l 40.13,-143.7 H 631.117 l 0.055,-75.9 h 479.948 l 5.33,-19.1 -6.27,-23.6 3.41,-13.6 -24.47,-87.4 H 631.785 v -76 h 436.075 l -40.21,-143.7 H 632.469 l -0.047,-75.9 h 373.968 l -40.218,-143.7 H 633 v -76 h 311.902 l -40.207,-143.6 H 633.66 v -76 h 249.766 l -40.211,-143.6 H 634.277 v -76.1 H 821.938 L 781.73,22249.8 H 634.938 v -76 h 125.523 l -40.234,-143.7 h -84.582 l -0.125,-75.9 h 63.457 l -40.207,-143.6 h -22.59 v -76 h 1.316 l -104.262,-372.5"
         style="fill:#9cddcb;fill-opacity:1;fill-rule:nonzero;stroke:none"
         transform="matrix(0.13333333,0,0,-0.13333333,0,3643.0533)" />
      <path
         id="path6913"
         d="m 681.539,25029.1 h -54.793 l -0.055,76 h 33.625 l 21.223,-76"
         style="fill:#bee9dc;fill-opacity:1;fill-rule:nonzero;stroke:none"
         transform="matrix(0.13333333,0,0,-0.13333333,0,3643.0533)" />
      <path
         id="path6914"
         d="m 627.363,24809.4 v 76 h 94.336 l 21.227,-76 H 627.363"
         style="fill:#bee9dc;fill-opacity:1;fill-rule:nonzero;stroke:none"
         transform="matrix(0.13333333,0,0,-0.13333333,0,3643.0533)" />
      <path
         id="path6915"
         d="M 804.285,24589.8 H 627.922 l 0.101,76 h 155.04 l 21.222,-76"
         style="fill:#bee9dc;fill-opacity:1;fill-rule:nonzero;stroke:none"
         transform="matrix(0.13333333,0,0,-0.13333333,0,3643.0533)" />
      <path
         id="path6916"
         d="m 628.605,24370.2 v 75.9 h 215.833 l 21.218,-75.9 H 628.605"
         style="fill:#bee9dc;fill-opacity:1;fill-rule:nonzero;stroke:none"
         transform="matrix(0.13333333,0,0,-0.13333333,0,3643.0533)" />
      <path
         id="path6917"
         d="M 927.023,24150.6 H 629.258 v 75.9 h 276.555 l 21.21,-75.9"
         style="fill:#bee9dc;fill-opacity:1;fill-rule:nonzero;stroke:none"
         transform="matrix(0.13333333,0,0,-0.13333333,0,3643.0533)" />
      <path
         id="path6918"
         d="M 988.395,23930.9 H 629.867 v 76 h 337.301 l 21.227,-76"
         style="fill:#bee9dc;fill-opacity:1;fill-rule:nonzero;stroke:none"
         transform="matrix(0.13333333,0,0,-0.13333333,0,3643.0533)" />
      <path
         id="path6919"
         d="m 630.535,23711.3 v 76 h 397.995 l 21.23,-76 H 630.535"
         style="fill:#bee9dc;fill-opacity:1;fill-rule:nonzero;stroke:none"
         transform="matrix(0.13333333,0,0,-0.13333333,0,3643.0533)" />
      <path
         id="path6920"
         d="m 631.172,23491.7 -0.055,75.9 h 458.773 l 21.23,-75.9 H 631.172"
         style="fill:#bee9dc;fill-opacity:1;fill-rule:nonzero;stroke:none"
         transform="matrix(0.13333333,0,0,-0.13333333,0,3643.0533)" />
      <path
         id="path6921"
         d="M 1067.86,23272 H 631.785 v 76 h 457.335 l -21.26,-76"
         style="fill:#bee9dc;fill-opacity:1;fill-rule:nonzero;stroke:none"
         transform="matrix(0.13333333,0,0,-0.13333333,0,3643.0533)" />
      <path
         id="path6922"
         d="m 632.422,23052.4 0.047,75.9 h 395.181 l -21.26,-75.9 H 632.422"
         style="fill:#bee9dc;fill-opacity:1;fill-rule:nonzero;stroke:none"
         transform="matrix(0.13333333,0,0,-0.13333333,0,3643.0533)" />
      <path
         id="path6923"
         d="m 633,22832.7 v 76 h 333.172 l -21.27,-76 H 633"
         style="fill:#bee9dc;fill-opacity:1;fill-rule:nonzero;stroke:none"
         transform="matrix(0.13333333,0,0,-0.13333333,0,3643.0533)" />
      <path
         id="path6924"
         d="M 883.426,22613.1 H 633.66 v 76 h 271.035 l -21.269,-76"
         style="fill:#bee9dc;fill-opacity:1;fill-rule:nonzero;stroke:none"
         transform="matrix(0.13333333,0,0,-0.13333333,0,3643.0533)" />
      <path
         id="path6925"
         d="m 634.277,22393.4 v 76.1 h 208.938 l -21.277,-76.1 H 634.277"
         style="fill:#bee9dc;fill-opacity:1;fill-rule:nonzero;stroke:none"
         transform="matrix(0.13333333,0,0,-0.13333333,0,3643.0533)" />
      <path
         id="path6926"
         d="M 760.461,22173.8 H 634.938 v 76 H 781.73 l -21.269,-76"
         style="fill:#bee9dc;fill-opacity:1;fill-rule:nonzero;stroke:none"
         transform="matrix(0.13333333,0,0,-0.13333333,0,3643.0533)" />
      <path
         id="path6927"
         d="M 698.977,21954.2 H 635.52 l 0.125,75.9 h 84.582 l -21.25,-75.9"
         style="fill:#bee9dc;fill-opacity:1;fill-rule:nonzero;stroke:none"
         transform="matrix(0.13333333,0,0,-0.13333333,0,3643.0533)" />
      <path
         id="path6928"
         d="m 637.496,21734.6 h -1.316 v 76 h 22.59 l -21.274,-76"
         style="fill:#bee9dc;fill-opacity:1;fill-rule:nonzero;stroke:none"
         transform="matrix(0.13333333,0,0,-0.13333333,0,3643.0533)" />
      <path
         id="path6929"
         d="m 1685.37,21151.7 -35.95,143.6 h 36.82 l -0.87,-143.6 m 1.33,219.6 h -44.65 v 143.6 h 44.59 v 76 h -44.59 v 143.7 h 44.06 v 76 h -44.06 v 143.6 h 43.41 l -0.03,76 h -43.38 v 143.6 h 42.7 l 0.04,76 h -42.74 v 143.7 h 42.1 v 76 h -42.1 v 143.6 h 41.5 v 76 h -41.5 v 143.7 h 40.91 v 75.9 h -40.91 v 143.7 h 40.23 v 76 h -40.23 v 143.6 h 39.57 v 76 h -39.57 v 143.7 h 38.98 v 75.9 h -38.98 v 143.7 h 38.33 l 0.03,76 h -38.36 v 143.6 h 37.74 v 76 h -37.74 v 143.7 h 37.08 v 75.9 h -37.08 v 143.7 h 36.44 v 76 h -36.44 v 143.6 h 35.85 v 76 h -35.85 v 143.7 h 35.11 l 0.09,76 h -35.2 v 143.6 h 34.54 v 76 h -34.54 v 143.7 h 33.85 l 0.05,75.9 h -33.9 v 118.8 l 6.64,24.9 h 26.65 v 76 h -6.39 l 43.97,164.9 -26.22,-4338"
         style="fill:#75c8c7;fill-opacity:1;fill-rule:nonzero;stroke:none"
         transform="matrix(0.13333333,0,0,-0.13333333,0,3643.0533)" />
      <path
         id="path6930"
         d="m 1642.05,21371.3 h -11.66 l -35.97,143.6 h 47.63 v -143.6 m -66.65,219.6 -35.97,143.7 h 102.62 v -143.7 h -66.65 m 66.65,219.7 h -121.64 l -35.97,143.6 h 157.61 v -143.6 m -176.63,219.6 -35.97,143.6 h 212.6 v -143.6 h -176.63 m 176.63,219.6 h -231.63 l -35.97,143.7 h 267.6 v -143.7 m 0,219.7 h -286.62 l -35.97,143.6 h 322.59 v -143.6 m 0,219.6 h -341.61 l -35.97,143.7 h 377.58 v -143.7 m 0,219.6 h -396.6 l -35.97,143.7 h 432.57 v -143.7 m -451.59,219.7 -35.96,143.6 h 487.55 v -143.6 h -451.59 m 451.59,219.6 h -506.57 l -21.89,87.4 6.63,23.7 -3.77,13.5 5.1,19.1 h 520.5 V 23348 m 0,219.6 h -500.24 l 38.3,143.7 h 461.94 v -143.7 m 0,219.7 h -441.67 l 38.3,143.6 h 403.37 v -143.6 m -383.11,219.6 38.32,143.7 h 344.79 v -143.7 h -383.11 m 383.11,219.6 H 1317.5 l 38.33,143.7 h 286.22 v -143.7 m -265.96,219.7 38.31,143.6 h 227.65 v -143.6 h -265.96 m 265.96,219.6 h -207.39 l 38.32,143.7 h 169.07 v -143.7 m -148.81,219.7 38.31,143.6 h 110.5 v -143.6 h -148.81 m 148.81,219.6 h -90.24 l 38.31,143.7 h 51.93 v -143.7 m -31.67,219.6 31.67,118.8 v -118.8 h -31.67"
         style="fill:#9cddcb;fill-opacity:1;fill-rule:nonzero;stroke:none"
         transform="matrix(0.13333333,0,0,-0.13333333,0,3643.0533)" />
      <path
         id="path6931"
         d="m 1648.69,25468.4 20.26,76 h 6.39 v -76 h -26.65"
         style="fill:#bee9dc;fill-opacity:1;fill-rule:nonzero;stroke:none"
         transform="matrix(0.13333333,0,0,-0.13333333,0,3643.0533)" />
      <path
         id="path6932"
         d="m 1590.12,25248.8 20.26,75.9 h 65.57 l -0.05,-75.9 h -33.85 -51.93"
         style="fill:#bee9dc;fill-opacity:1;fill-rule:nonzero;stroke:none"
         transform="matrix(0.13333333,0,0,-0.13333333,0,3643.0533)" />
      <path
         id="path6933"
         d="m 1676.59,25029.1 h -145.04 l 20.26,76 h 124.78 v -76"
         style="fill:#bee9dc;fill-opacity:1;fill-rule:nonzero;stroke:none"
         transform="matrix(0.13333333,0,0,-0.13333333,0,3643.0533)" />
      <path
         id="path6934"
         d="m 1472.98,24809.5 20.26,76 h 148.81 35.2 l -0.09,-76 h -35.11 -169.07"
         style="fill:#bee9dc;fill-opacity:1;fill-rule:nonzero;stroke:none"
         transform="matrix(0.13333333,0,0,-0.13333333,0,3643.0533)" />
      <path
         id="path6935"
         d="m 1677.9,24589.8 h -263.5 l 20.26,76 h 243.24 v -76"
         style="fill:#bee9dc;fill-opacity:1;fill-rule:nonzero;stroke:none"
         transform="matrix(0.13333333,0,0,-0.13333333,0,3643.0533)" />
      <path
         id="path6936"
         d="m 1355.83,24370.2 20.26,76 h 265.96 36.44 v -76 h -36.44 -286.22"
         style="fill:#bee9dc;fill-opacity:1;fill-rule:nonzero;stroke:none"
         transform="matrix(0.13333333,0,0,-0.13333333,0,3643.0533)" />
      <path
         id="path6937"
         d="m 1679.13,24150.6 h -381.87 l 20.24,75.9 h 361.63 v -75.9"
         style="fill:#bee9dc;fill-opacity:1;fill-rule:nonzero;stroke:none"
         transform="matrix(0.13333333,0,0,-0.13333333,0,3643.0533)" />
      <path
         id="path6938"
         d="m 1679.79,23930.9 h -441.11 l 20.26,76 h 383.11 37.74 v -76"
         style="fill:#bee9dc;fill-opacity:1;fill-rule:nonzero;stroke:none"
         transform="matrix(0.13333333,0,0,-0.13333333,0,3643.0533)" />
      <path
         id="path6939"
         d="m 1180.11,23711.3 20.27,76 h 480.03 l -0.03,-76 h -38.33 -461.94"
         style="fill:#bee9dc;fill-opacity:1;fill-rule:nonzero;stroke:none"
         transform="matrix(0.13333333,0,0,-0.13333333,0,3643.0533)" />
      <path
         id="path6940"
         d="m 1121.55,23491.7 20.26,75.9 h 539.22 v -75.9 h -38.98 -520.5"
         style="fill:#bee9dc;fill-opacity:1;fill-rule:nonzero;stroke:none"
         transform="matrix(0.13333333,0,0,-0.13333333,0,3643.0533)" />
      <path
         id="path6941"
         d="M 1681.62,23272 H 1154.5 l -19.02,76 h 546.14 v -76"
         style="fill:#bee9dc;fill-opacity:1;fill-rule:nonzero;stroke:none"
         transform="matrix(0.13333333,0,0,-0.13333333,0,3643.0533)" />
      <path
         id="path6942"
         d="m 1209.48,23052.4 -19.02,76 h 451.59 40.23 v -76 h -40.23 -432.57"
         style="fill:#bee9dc;fill-opacity:1;fill-rule:nonzero;stroke:none"
         transform="matrix(0.13333333,0,0,-0.13333333,0,3643.0533)" />
      <path
         id="path6943"
         d="m 1264.47,22832.8 -19.02,75.9 h 437.51 v -75.9 h -40.91 -377.58"
         style="fill:#bee9dc;fill-opacity:1;fill-rule:nonzero;stroke:none"
         transform="matrix(0.13333333,0,0,-0.13333333,0,3643.0533)" />
      <path
         id="path6944"
         d="m 1683.55,22613.1 h -364.09 l -19.02,76 h 383.11 v -76"
         style="fill:#bee9dc;fill-opacity:1;fill-rule:nonzero;stroke:none"
         transform="matrix(0.13333333,0,0,-0.13333333,0,3643.0533)" />
      <path
         id="path6945"
         d="m 1374.45,22393.5 -19.02,76 h 328.72 v -76 h -42.1 -267.6"
         style="fill:#bee9dc;fill-opacity:1;fill-rule:nonzero;stroke:none"
         transform="matrix(0.13333333,0,0,-0.13333333,0,3643.0533)" />
      <path
         id="path6946"
         d="m 1684.75,22173.8 h -255.3 l -19.03,76 h 274.37 l -0.04,-76"
         style="fill:#bee9dc;fill-opacity:1;fill-rule:nonzero;stroke:none"
         transform="matrix(0.13333333,0,0,-0.13333333,0,3643.0533)" />
      <path
         id="path6947"
         d="m 1685.46,21954.2 h -201.02 l -19.02,76 h 176.63 43.38 l 0.03,-76"
         style="fill:#bee9dc;fill-opacity:1;fill-rule:nonzero;stroke:none"
         transform="matrix(0.13333333,0,0,-0.13333333,0,3643.0533)" />
      <path
         id="path6948"
         d="m 1686.11,21734.6 h -146.68 l -19.02,76 h 165.7 v -76"
         style="fill:#bee9dc;fill-opacity:1;fill-rule:nonzero;stroke:none"
         transform="matrix(0.13333333,0,0,-0.13333333,0,3643.0533)" />
      <path
         id="path6949"
         d="m 1686.64,21514.9 h -92.22 l -19.02,76 h 66.65 44.59 v -76"
         style="fill:#bee9dc;fill-opacity:1;fill-rule:nonzero;stroke:none"
         transform="matrix(0.13333333,0,0,-0.13333333,0,3643.0533)" />
      <path
         id="path6950"
         d="m 1686.24,21295.3 h -36.82 l -19.03,76 h 56.31 l -0.46,-76"
         style="fill:#bee9dc;fill-opacity:1;fill-rule:nonzero;stroke:none"
         transform="matrix(0.13333333,0,0,-0.13333333,0,3643.0533)" />
      <path
         id="path6951"
         d="m 1113.59,23435.4 -3.41,13.6 6.27,23.6 3.77,-13.5 -6.63,-23.7"
         style="fill:#aae2d4;fill-opacity:1;fill-rule:nonzero;stroke:none"
         transform="matrix(0.13333333,0,0,-0.13333333,0,3643.0533)" />
    </g>
  </g>
</svg>
